<svg width="48" height="48" viewBox="0 0 48 48" fill="none" xmlns="http://www.w3.org/2000/svg">
<path fill-rule="evenodd" clip-rule="evenodd" d="M24 29.1665C24 27.1111 24.8165 25.1398 26.2699 23.6864C27.7233 22.233 29.6946 21.4165 31.75 21.4165H42.0833C43.4536 21.4165 44.7678 21.9608 45.7367 22.9298C46.7057 23.8987 47.25 25.2129 47.25 26.5832V31.7498C47.25 33.1201 46.7057 34.4343 45.7367 35.4032C44.7678 36.3722 43.4536 36.9165 42.0833 36.9165H31.75C29.6946 36.9165 27.7233 36.1 26.2699 34.6466C24.8165 33.1932 24 31.2219 24 29.1665ZM31.75 26.5832C31.0649 26.5832 30.4078 26.8553 29.9233 27.3398C29.4388 27.8243 29.1667 28.4814 29.1667 29.1665C29.1667 29.8516 29.4388 30.5087 29.9233 30.9932C30.4078 31.4777 31.0649 31.7498 31.75 31.7498H42.0833V26.5832H31.75Z" fill="black"/>
<path fill-rule="evenodd" clip-rule="evenodd" d="M24.7569 1.50685C25.2414 1.02255 25.8983 0.750488 26.5833 0.750488C27.2683 0.750488 27.9253 1.02255 28.4097 1.50685L35.4028 8.49994H28.0972L24.7569 5.15969C24.2726 4.67524 24.0006 4.01828 24.0006 3.33327C24.0006 2.64826 24.2726 1.9913 24.7569 1.50685ZM25.0695 8.49994L18.0764 1.50685C17.592 1.02255 16.935 0.750488 16.25 0.750488C15.565 0.750488 14.908 1.02255 14.4236 1.50685L7.4305 8.49994H25.0695ZM4.84717 11.0833L4.7025 11.2254C3.57541 11.4978 2.57275 12.1416 1.85583 13.0529C1.13891 13.9643 0.749416 15.0904 0.750001 16.2499V42.0833C0.750001 43.4536 1.29434 44.7677 2.26328 45.7367C3.23222 46.7056 4.54638 47.2499 5.91667 47.2499H36.9167C38.2869 47.2499 39.6011 46.7056 40.57 45.7367C41.539 44.7677 42.0833 43.4536 42.0833 42.0833H31.75C28.3243 42.0833 25.0389 40.7224 22.6165 38.3001C20.1942 35.8777 18.8333 32.5923 18.8333 29.1666C18.8333 25.7409 20.1942 22.4555 22.6165 20.0331C25.0389 17.6108 28.3243 16.2499 31.75 16.2499H42.0833C42.0839 15.0904 41.6944 13.9643 40.9775 13.0529C40.2606 12.1416 39.2579 11.4978 38.1308 11.2254L37.9862 11.0833H4.84717Z" fill="black"/>
</svg>
