<svg width="334" height="45" viewBox="0 0 334 45" fill="none" xmlns="http://www.w3.org/2000/svg">
<path d="M10.7898 34.9946L0.9375 0.085537H7.73864L14.0284 25.7389H14.3523L21.0682 0.085537H27.2557L33.9886 25.756H34.2955L40.5852 0.085537H47.3864L37.5341 34.9946H31.2955L24.3068 10.5003H24.0341L17.0284 34.9946H10.7898ZM58.2808 35.523C56.6217 35.523 55.1274 35.2276 53.7978 34.6367C52.4797 34.0344 51.4342 33.148 50.6615 31.9776C49.9001 30.8071 49.5194 29.3639 49.5194 27.648C49.5194 26.1708 49.7922 24.9492 50.3376 23.9833C50.8831 23.0174 51.6274 22.2446 52.5706 21.6651C53.5137 21.0855 54.5762 20.648 55.7581 20.3526C56.9512 20.0458 58.1842 19.8242 59.4569 19.6878C60.991 19.5287 62.2353 19.3867 63.1899 19.2617C64.1444 19.1253 64.8376 18.9208 65.2694 18.648C65.7126 18.3639 65.9342 17.9264 65.9342 17.3355V17.2333C65.9342 15.9492 65.5535 14.9549 64.7922 14.2503C64.0308 13.5458 62.9342 13.1935 61.5024 13.1935C59.991 13.1935 58.7922 13.523 57.9058 14.1821C57.0308 14.8412 56.4399 15.6196 56.1331 16.5174L50.3717 15.6992C50.8262 14.1083 51.5762 12.7787 52.6217 11.7105C53.6672 10.631 54.9456 9.82417 56.4569 9.29008C57.9683 8.74463 59.6387 8.4719 61.4683 8.4719C62.7297 8.4719 63.9853 8.61963 65.2353 8.91508C66.4853 9.21054 67.6274 9.69917 68.6615 10.381C69.6956 11.0514 70.5251 11.9662 71.1501 13.1253C71.7865 14.2844 72.1047 15.7333 72.1047 17.4719V34.9946H66.1728V31.398H65.9683C65.5933 32.1253 65.0649 32.8071 64.3831 33.4435C63.7126 34.0685 62.866 34.5742 61.8433 34.9605C60.8319 35.3355 59.6444 35.523 58.2808 35.523ZM59.8831 30.9889C61.1217 30.9889 62.1956 30.7446 63.1047 30.256C64.0137 29.756 64.7126 29.0969 65.2012 28.2787C65.7012 27.4605 65.9512 26.5685 65.9512 25.6026V22.5174C65.7581 22.6764 65.4285 22.8242 64.9626 22.9605C64.5081 23.0969 63.9967 23.2162 63.4285 23.3185C62.8603 23.4208 62.2978 23.5117 61.741 23.5912C61.1842 23.6708 60.7012 23.7389 60.2922 23.7958C59.3717 23.9208 58.5478 24.1253 57.8206 24.4094C57.0933 24.6935 56.5194 25.0912 56.099 25.6026C55.6785 26.1026 55.4683 26.7503 55.4683 27.5458C55.4683 28.6821 55.8831 29.5401 56.7126 30.1196C57.5422 30.6992 58.599 30.9889 59.8831 30.9889ZM80.2292 34.9946V8.81281H86.2122V13.1764H86.4849C86.9622 11.6651 87.7803 10.5003 88.9394 9.68213C90.1099 8.85258 91.4451 8.43781 92.9451 8.43781C93.286 8.43781 93.6667 8.45485 94.0872 8.48895C94.519 8.51167 94.8769 8.55145 95.161 8.60826V14.2844C94.8997 14.1935 94.4849 14.1139 93.9167 14.0458C93.3599 13.9662 92.8201 13.9264 92.2974 13.9264C91.1724 13.9264 90.161 14.1708 89.2633 14.6594C88.3769 15.1367 87.6781 15.8014 87.1667 16.6537C86.6553 17.506 86.3997 18.4889 86.3997 19.6026V34.9946H80.2292ZM111.693 35.506C109.068 35.506 106.801 34.9605 104.892 33.8696C102.994 32.7674 101.534 31.2105 100.511 29.1992C99.4887 27.1764 98.9773 24.7958 98.9773 22.0571C98.9773 19.3639 99.4887 17.0003 100.511 14.9662C101.546 12.9208 102.989 11.3299 104.841 10.1935C106.693 9.04576 108.869 8.4719 111.369 8.4719C112.983 8.4719 114.506 8.73326 115.938 9.25599C117.381 9.76735 118.653 10.5628 119.756 11.6424C120.869 12.7219 121.744 14.0969 122.381 15.7674C123.017 17.4264 123.335 19.4037 123.335 21.6992V23.5912H101.875V19.4321H117.421C117.409 18.2503 117.153 17.1992 116.653 16.2787C116.153 15.3469 115.455 14.6139 114.557 14.0799C113.671 13.5458 112.636 13.2787 111.455 13.2787C110.193 13.2787 109.085 13.5855 108.131 14.1992C107.176 14.8014 106.432 15.5969 105.898 16.5855C105.375 17.5628 105.108 18.6367 105.097 19.8071V23.4378C105.097 24.9605 105.375 26.2674 105.932 27.3583C106.489 28.4378 107.267 29.2674 108.267 29.8469C109.267 30.4151 110.438 30.6992 111.778 30.6992C112.676 30.6992 113.489 30.5742 114.216 30.3242C114.943 30.0628 115.574 29.6821 116.108 29.1821C116.642 28.6821 117.046 28.0628 117.318 27.3242L123.08 27.9719C122.716 29.4946 122.023 30.8242 121 31.9605C119.989 33.0855 118.693 33.9605 117.114 34.5855C115.534 35.1992 113.727 35.506 111.693 35.506ZM136.1 26.7787L136.083 19.3299H137.072L146.481 8.81281H153.691L142.118 21.6992H140.839L136.1 26.7787ZM130.475 34.9946V0.085537H136.646V34.9946H130.475ZM146.907 34.9946L138.385 23.0799L142.544 18.7333L154.288 34.9946H146.907ZM167.258 35.523C165.599 35.523 164.104 35.2276 162.775 34.6367C161.457 34.0344 160.411 33.148 159.638 31.9776C158.877 30.8071 158.496 29.3639 158.496 27.648C158.496 26.1708 158.769 24.9492 159.314 23.9833C159.86 23.0174 160.604 22.2446 161.547 21.6651C162.491 21.0855 163.553 20.648 164.735 20.3526C165.928 20.0458 167.161 19.8242 168.434 19.6878C169.968 19.5287 171.212 19.3867 172.167 19.2617C173.121 19.1253 173.814 18.9208 174.246 18.648C174.689 18.3639 174.911 17.9264 174.911 17.3355V17.2333C174.911 15.9492 174.53 14.9549 173.769 14.2503C173.008 13.5458 171.911 13.1935 170.479 13.1935C168.968 13.1935 167.769 13.523 166.883 14.1821C166.008 14.8412 165.417 15.6196 165.11 16.5174L159.349 15.6992C159.803 14.1083 160.553 12.7787 161.599 11.7105C162.644 10.631 163.922 9.82417 165.434 9.29008C166.945 8.74463 168.616 8.4719 170.445 8.4719C171.707 8.4719 172.962 8.61963 174.212 8.91508C175.462 9.21054 176.604 9.69917 177.638 10.381C178.672 11.0514 179.502 11.9662 180.127 13.1253C180.763 14.2844 181.082 15.7333 181.082 17.4719V34.9946H175.15V31.398H174.945C174.57 32.1253 174.042 32.8071 173.36 33.4435C172.689 34.0685 171.843 34.5742 170.82 34.9605C169.809 35.3355 168.621 35.523 167.258 35.523ZM168.86 30.9889C170.099 30.9889 171.172 30.7446 172.082 30.256C172.991 29.756 173.689 29.0969 174.178 28.2787C174.678 27.4605 174.928 26.5685 174.928 25.6026V22.5174C174.735 22.6764 174.405 22.8242 173.939 22.9605C173.485 23.0969 172.974 23.2162 172.405 23.3185C171.837 23.4208 171.275 23.5117 170.718 23.5912C170.161 23.6708 169.678 23.7389 169.269 23.7958C168.349 23.9208 167.525 24.1253 166.797 24.4094C166.07 24.6935 165.496 25.0912 165.076 25.6026C164.655 26.1026 164.445 26.7503 164.445 27.5458C164.445 28.6821 164.86 29.5401 165.689 30.1196C166.519 30.6992 167.576 30.9889 168.86 30.9889ZM195.377 19.6537V34.9946H189.206V8.81281H195.104V13.2617H195.411C196.013 11.7958 196.973 10.631 198.291 9.76736C199.621 8.90372 201.263 8.4719 203.217 8.4719C205.024 8.4719 206.598 8.85826 207.939 9.63099C209.291 10.4037 210.337 11.523 211.075 12.9889C211.825 14.4549 212.195 16.2333 212.183 18.3242V34.9946H206.013V19.2787C206.013 17.5287 205.558 16.1594 204.649 15.1708C203.752 14.1821 202.507 13.6878 200.916 13.6878C199.837 13.6878 198.877 13.9264 198.036 14.4037C197.206 14.8696 196.553 15.5458 196.075 16.4321C195.609 17.3185 195.377 18.3924 195.377 19.6537ZM227.91 35.523C226.251 35.523 224.757 35.2276 223.427 34.6367C222.109 34.0344 221.064 33.148 220.291 31.9776C219.529 30.8071 219.149 29.3639 219.149 27.648C219.149 26.1708 219.422 24.9492 219.967 23.9833C220.512 23.0174 221.257 22.2446 222.2 21.6651C223.143 21.0855 224.206 20.648 225.387 20.3526C226.581 20.0458 227.814 19.8242 229.086 19.6878C230.62 19.5287 231.865 19.3867 232.819 19.2617C233.774 19.1253 234.467 18.9208 234.899 18.648C235.342 18.3639 235.564 17.9264 235.564 17.3355V17.2333C235.564 15.9492 235.183 14.9549 234.422 14.2503C233.66 13.5458 232.564 13.1935 231.132 13.1935C229.62 13.1935 228.422 13.523 227.535 14.1821C226.66 14.8412 226.069 15.6196 225.762 16.5174L220.001 15.6992C220.456 14.1083 221.206 12.7787 222.251 11.7105C223.297 10.631 224.575 9.82417 226.086 9.29008C227.598 8.74463 229.268 8.4719 231.098 8.4719C232.359 8.4719 233.615 8.61963 234.865 8.91508C236.115 9.21054 237.257 9.69917 238.291 10.381C239.325 11.0514 240.154 11.9662 240.779 13.1253C241.416 14.2844 241.734 15.7333 241.734 17.4719V34.9946H235.802V31.398H235.598C235.223 32.1253 234.694 32.8071 234.012 33.4435C233.342 34.0685 232.495 34.5742 231.473 34.9605C230.461 35.3355 229.274 35.523 227.91 35.523ZM229.512 30.9889C230.751 30.9889 231.825 30.7446 232.734 30.256C233.643 29.756 234.342 29.0969 234.831 28.2787C235.331 27.4605 235.581 26.5685 235.581 25.6026V22.5174C235.387 22.6764 235.058 22.8242 234.592 22.9605C234.137 23.0969 233.626 23.2162 233.058 23.3185C232.49 23.4208 231.927 23.5117 231.37 23.5912C230.814 23.6708 230.331 23.7389 229.922 23.7958C229.001 23.9208 228.177 24.1253 227.45 24.4094C226.723 24.6935 226.149 25.0912 225.728 25.6026C225.308 26.1026 225.098 26.7503 225.098 27.5458C225.098 28.6821 225.512 29.5401 226.342 30.1196C227.172 30.6992 228.228 30.9889 229.512 30.9889ZM249.859 44.8128V8.81281H255.927V13.1424H256.285C256.603 12.506 257.052 11.8299 257.631 11.1139C258.211 10.3867 258.995 9.76735 259.984 9.25599C260.972 8.73326 262.234 8.4719 263.768 8.4719C265.79 8.4719 267.614 8.98895 269.239 10.023C270.876 11.0458 272.171 12.5628 273.126 14.5742C274.092 16.5742 274.574 19.0287 274.574 21.9378C274.574 24.8128 274.103 27.256 273.16 29.2674C272.217 31.2787 270.932 32.8128 269.307 33.8696C267.682 34.9264 265.842 35.4549 263.785 35.4549C262.285 35.4549 261.04 35.2049 260.052 34.7049C259.063 34.2049 258.268 33.6026 257.665 32.898C257.074 32.1821 256.614 31.506 256.285 30.8696H256.029V44.8128H249.859ZM255.91 21.9037C255.91 23.5969 256.148 25.0799 256.626 26.3526C257.114 27.6253 257.813 28.6196 258.722 29.3355C259.643 30.0401 260.756 30.3924 262.063 30.3924C263.427 30.3924 264.569 30.0287 265.489 29.3014C266.41 28.5628 267.103 27.5571 267.569 26.2844C268.046 25.0003 268.285 23.5401 268.285 21.9037C268.285 20.2787 268.052 18.8355 267.586 17.5742C267.12 16.3128 266.427 15.3242 265.506 14.6083C264.586 13.8924 263.438 13.5344 262.063 13.5344C260.745 13.5344 259.626 13.881 258.705 14.5742C257.785 15.2674 257.086 16.2389 256.609 17.4889C256.143 18.7389 255.91 20.2105 255.91 21.9037ZM289.313 35.523C287.654 35.523 286.159 35.2276 284.83 34.6367C283.512 34.0344 282.466 33.148 281.693 31.9776C280.932 30.8071 280.551 29.3639 280.551 27.648C280.551 26.1708 280.824 24.9492 281.369 23.9833C281.915 23.0174 282.659 22.2446 283.602 21.6651C284.546 21.0855 285.608 20.648 286.79 20.3526C287.983 20.0458 289.216 19.8242 290.489 19.6878C292.023 19.5287 293.267 19.3867 294.222 19.2617C295.176 19.1253 295.869 18.9208 296.301 18.648C296.744 18.3639 296.966 17.9264 296.966 17.3355V17.2333C296.966 15.9492 296.585 14.9549 295.824 14.2503C295.063 13.5458 293.966 13.1935 292.534 13.1935C291.023 13.1935 289.824 13.523 288.938 14.1821C288.063 14.8412 287.472 15.6196 287.165 16.5174L281.404 15.6992C281.858 14.1083 282.608 12.7787 283.654 11.7105C284.699 10.631 285.977 9.82417 287.489 9.29008C289 8.74463 290.671 8.4719 292.5 8.4719C293.762 8.4719 295.017 8.61963 296.267 8.91508C297.517 9.21054 298.659 9.69917 299.693 10.381C300.727 11.0514 301.557 11.9662 302.182 13.1253C302.818 14.2844 303.137 15.7333 303.137 17.4719V34.9946H297.205V31.398H297C296.625 32.1253 296.097 32.8071 295.415 33.4435C294.744 34.0685 293.898 34.5742 292.875 34.9605C291.864 35.3355 290.676 35.523 289.313 35.523ZM290.915 30.9889C292.154 30.9889 293.227 30.7446 294.137 30.256C295.046 29.756 295.744 29.0969 296.233 28.2787C296.733 27.4605 296.983 26.5685 296.983 25.6026V22.5174C296.79 22.6764 296.46 22.8242 295.994 22.9605C295.54 23.0969 295.029 23.2162 294.46 23.3185C293.892 23.4208 293.33 23.5117 292.773 23.5912C292.216 23.6708 291.733 23.7389 291.324 23.7958C290.404 23.9208 289.58 24.1253 288.852 24.4094C288.125 24.6935 287.551 25.0912 287.131 25.6026C286.71 26.1026 286.5 26.7503 286.5 27.5458C286.5 28.6821 286.915 29.5401 287.744 30.1196C288.574 30.6992 289.631 30.9889 290.915 30.9889ZM314.159 44.8128C313.318 44.8128 312.54 44.7446 311.824 44.6083C311.119 44.4833 310.557 44.3355 310.136 44.1651L311.568 39.3583C312.466 39.6196 313.267 39.7446 313.971 39.7333C314.676 39.7219 315.295 39.5003 315.829 39.0685C316.375 38.648 316.835 37.9435 317.21 36.9549L317.738 35.5401L308.244 8.81281H314.79L320.824 28.5855H321.096L327.147 8.81281H333.71L323.227 38.1651C322.738 39.5514 322.091 40.7389 321.284 41.7276C320.477 42.7276 319.488 43.4889 318.318 44.0117C317.159 44.5458 315.772 44.8128 314.159 44.8128Z" fill="black"/>
</svg>
